# xmcd
#
# Track frame offsets:
#       150
#       16656
#       34669
#       52581
#       68538
#       85099
#       102184
#       121406
#       144305
#       153009
#
# Disc length: 2263 seconds
#
# Revision: 1
# Processed by: cddbd v1.5.1PL0 Copyright (c) Steve Scherf et al.
# Submitted via: WaveLab 4.01
#
DISCID=6408d50a
DTITLE=Hue and Cry - The River Sessions 1987
DYEAR=2005
DGENRE=
TTITLE0=Labour Of Love
TTITLE1=Alligator Man
TTITLE2=Mad To Nuts
TTITLE3=Truth
TTITLE4=History City
TTITLE5=I Refuse
TTITLE6=Love In The Master
TTITLE7=Strength To Strength
TTITLE8=Tempted
TTITLE9=I Refuse (reprise)
EXTD=
EXTT0=
EXTT1=
EXTT2=
EXTT3=
EXTT4=
EXTT5=
EXTT6=
EXTT7=
EXTT8=
EXTT9=
PLAYORDER=
